<svg width="96" height="35" viewBox="0 0 96 35" fill="none" xmlns="http://www.w3.org/2000/svg">
<path d="M95.3405 10.5131C95.3405 4.99021 90.8633 0.513062 85.3405 0.513062H10.3405C4.81761 0.513062 0.340454 4.99021 0.340454 10.5131V24.3445C0.340454 29.8673 4.8176 34.3445 10.3405 34.3445H85.3405C90.8633 34.3445 95.3405 29.8673 95.3405 24.3445V10.5131Z" fill="#353945"/>
<path d="M43.3752 23.2734V10.5461H44.1905V23.2734H43.3752ZM45.7267 14.6179C45.6803 14.1837 45.4848 13.8456 45.1401 13.6037C44.7987 13.3617 44.3546 13.2407 43.8077 13.2407C43.4232 13.2407 43.0934 13.2987 42.8183 13.4147C42.5433 13.5307 42.3328 13.6882 42.187 13.887C42.0411 14.0859 41.9665 14.3129 41.9632 14.5681C41.9632 14.7803 42.0113 14.9642 42.1074 15.12C42.2068 15.2758 42.3411 15.4083 42.5101 15.5177C42.6791 15.6238 42.8664 15.7133 43.0719 15.7862C43.2774 15.8591 43.4845 15.9204 43.6933 15.9701L44.6479 16.2088C45.0324 16.2983 45.4019 16.4192 45.7566 16.5717C46.1145 16.7242 46.4344 16.9164 46.7161 17.1484C47.0011 17.3804 47.2265 17.6605 47.3922 17.9886C47.5579 18.3167 47.6408 18.7012 47.6408 19.142C47.6408 19.7386 47.4883 20.2639 47.1834 20.718C46.8785 21.1688 46.4377 21.5217 45.861 21.7769C45.2876 22.0288 44.5932 22.1548 43.7779 22.1548C42.9857 22.1548 42.298 22.0322 41.7147 21.7869C41.1346 21.5416 40.6806 21.1837 40.3524 20.713C40.0276 20.2424 39.852 19.669 39.8255 18.9929H41.6401C41.6666 19.3475 41.776 19.6425 41.9682 19.8778C42.1604 20.1131 42.4107 20.2888 42.7189 20.4048C43.0305 20.5208 43.3785 20.5788 43.763 20.5788C44.164 20.5788 44.5153 20.5191 44.8169 20.3998C45.1219 20.2772 45.3605 20.1082 45.5328 19.8927C45.7052 19.674 45.793 19.4188 45.7963 19.1271C45.793 18.8619 45.7151 18.6432 45.5627 18.4708C45.4102 18.2952 45.1964 18.1493 44.9213 18.0333C44.6496 17.914 44.3314 17.808 43.9668 17.7152L42.8084 17.4169C41.9699 17.2014 41.307 16.875 40.8198 16.4375C40.3359 15.9966 40.0939 15.4117 40.0939 14.6825C40.0939 14.0826 40.2563 13.5573 40.5811 13.1065C40.9093 12.6557 41.355 12.3061 41.9185 12.0575C42.4819 11.8056 43.12 11.6796 43.8326 11.6796C44.5551 11.6796 45.1881 11.8056 45.7317 12.0575C46.2786 12.3061 46.7078 12.6524 47.0193 13.0966C47.3309 13.5374 47.4916 14.0445 47.5016 14.6179H45.7267ZM52.9492 22.1946C52.1306 22.1946 51.4279 21.9874 50.8413 21.5731C50.2579 21.1555 49.8088 20.5539 49.494 19.7684C49.1824 18.9796 49.0266 18.03 49.0266 16.9197C49.0299 15.8094 49.1874 14.8648 49.4989 14.0859C49.8138 13.3037 50.2629 12.7071 50.8462 12.2961C51.4329 11.8851 52.1339 11.6796 52.9492 11.6796C53.7645 11.6796 54.4655 11.8851 55.0522 12.2961C55.6388 12.7071 56.0879 13.3037 56.3995 14.0859C56.7144 14.8681 56.8718 15.8127 56.8718 16.9197C56.8718 18.0333 56.7144 18.9846 56.3995 19.7734C56.0879 20.5589 55.6388 21.1588 55.0522 21.5731C54.4689 21.9874 53.7679 22.1946 52.9492 22.1946ZM52.9492 20.6385C53.5856 20.6385 54.0877 20.3252 54.4556 19.6988C54.8268 19.0691 55.0124 18.1427 55.0124 16.9197C55.0124 16.111 54.9279 15.4315 54.7589 14.8814C54.5898 14.3312 54.3512 13.9169 54.043 13.6385C53.7347 13.3567 53.3701 13.2159 52.9492 13.2159C52.3162 13.2159 51.8157 13.5307 51.4478 14.1605C51.0799 14.7869 50.8943 15.7066 50.891 16.9197C50.8877 17.7317 50.9689 18.4145 51.1346 18.968C51.3036 19.5215 51.5422 19.9391 51.8505 20.2208C52.1587 20.4993 52.525 20.6385 52.9492 20.6385ZM59.2557 22.11C58.9541 22.11 58.6955 22.004 58.4801 21.7919C58.2647 21.5797 58.1586 21.3212 58.1619 21.0163C58.1586 20.718 58.2647 20.4628 58.4801 20.2507C58.6955 20.0386 58.9541 19.9325 59.2557 19.9325C59.5473 19.9325 59.8009 20.0386 60.0163 20.2507C60.2351 20.4628 60.3461 20.718 60.3494 21.0163C60.3461 21.2185 60.2931 21.4024 60.1903 21.5681C60.0909 21.7339 59.9583 21.8664 59.7926 21.9659C59.6302 22.062 59.4512 22.11 59.2557 22.11ZM65.5721 11.6796C66.0593 11.683 66.5333 11.7691 66.994 11.9382C67.458 12.1039 67.8756 12.3757 68.2468 12.7535C68.618 13.128 68.913 13.6302 69.1317 14.2599C69.3505 14.8896 69.4599 15.6685 69.4599 16.5966C69.4632 17.4716 69.3704 18.2537 69.1815 18.9431C68.9958 19.6292 68.729 20.2092 68.381 20.6832C68.033 21.1572 67.6137 21.5184 67.1232 21.767C66.6327 22.0156 66.0808 22.1399 65.4677 22.1399C64.8247 22.1399 64.2546 22.0139 63.7574 21.762C63.2636 21.5101 62.8642 21.1654 62.5593 20.7279C62.2544 20.2904 62.0671 19.79 61.9975 19.2265H63.8121C63.9049 19.6309 64.0939 19.9524 64.3789 20.191C64.6672 20.4263 65.0302 20.544 65.4677 20.544C66.1736 20.544 66.7172 20.2374 67.0984 19.6243C67.4795 19.0111 67.6701 18.1593 67.6701 17.0689H67.6005C67.4381 17.3605 67.2276 17.6124 66.9691 17.8245C66.7106 18.0333 66.4172 18.1941 66.0891 18.3068C65.7643 18.4195 65.4196 18.4758 65.055 18.4758C64.4584 18.4758 63.9215 18.3333 63.4442 18.0483C62.9703 17.7632 62.5941 17.3721 62.3157 16.875C62.0406 16.3778 61.9014 15.8094 61.8981 15.1697C61.8981 14.5068 62.0505 13.9119 62.3555 13.3849C62.6637 12.8546 63.0929 12.437 63.6431 12.1321C64.1933 11.8238 64.8363 11.673 65.5721 11.6796ZM65.577 13.1711C65.2191 13.1711 64.8959 13.259 64.6076 13.4346C64.3226 13.607 64.0972 13.8423 63.9315 14.1406C63.769 14.4356 63.6878 14.7653 63.6878 15.1299C63.6912 15.4912 63.7724 15.8193 63.9315 16.1143C64.0939 16.4093 64.3143 16.643 64.5927 16.8153C64.8744 16.9877 65.1959 17.0738 65.5572 17.0738C65.8256 17.0738 66.0759 17.0225 66.3079 16.9197C66.5399 16.817 66.7421 16.6744 66.9144 16.4921C67.0901 16.3065 67.226 16.0961 67.3221 15.8608C67.4215 15.6254 67.4696 15.3769 67.4663 15.115C67.4663 14.767 67.3834 14.4455 67.2177 14.1505C67.0553 13.8555 66.8315 13.6186 66.5465 13.4396C66.2648 13.2606 65.9416 13.1711 65.577 13.1711ZM74.8789 22.1946C74.0602 22.1946 73.3576 21.9874 72.7709 21.5731C72.1876 21.1555 71.7385 20.5539 71.4236 19.7684C71.1121 18.9796 70.9563 18.03 70.9563 16.9197C70.9596 15.8094 71.1171 14.8648 71.4286 14.0859C71.7435 13.3037 72.1926 12.7071 72.7759 12.2961C73.3626 11.8851 74.0636 11.6796 74.8789 11.6796C75.6942 11.6796 76.3952 11.8851 76.9819 12.2961C77.5685 12.7071 78.0176 13.3037 78.3292 14.0859C78.644 14.8681 78.8015 15.8127 78.8015 16.9197C78.8015 18.0333 78.644 18.9846 78.3292 19.7734C78.0176 20.5589 77.5685 21.1588 76.9819 21.5731C76.3985 21.9874 75.6976 22.1946 74.8789 22.1946ZM74.8789 20.6385C75.5153 20.6385 76.0174 20.3252 76.3853 19.6988C76.7565 19.0691 76.9421 18.1427 76.9421 16.9197C76.9421 16.111 76.8576 15.4315 76.6886 14.8814C76.5195 14.3312 76.2809 13.9169 75.9726 13.6385C75.6644 13.3567 75.2998 13.2159 74.8789 13.2159C74.2458 13.2159 73.7454 13.5307 73.3775 14.1605C73.0096 14.7869 72.824 15.7066 72.8207 16.9197C72.8173 17.7317 72.8985 18.4145 73.0643 18.968C73.2333 19.5215 73.4719 19.9391 73.7802 20.2208C74.0884 20.4993 74.4547 20.6385 74.8789 20.6385Z" fill="white"/>
<path d="M23.7118 24.9606C28.2518 24.9606 31.9323 21.143 31.9323 16.4337C31.9323 11.7244 28.2518 7.90683 23.7118 7.90683C19.1718 7.90683 15.4913 11.7244 15.4913 16.4337C15.4913 21.143 19.1718 24.9606 23.7118 24.9606Z" fill="#3772FF"/>
<path d="M19.8822 14.9609C20.6581 14.9609 21.3667 14.9609 22.1224 14.9609C21.8802 14.5916 21.6668 14.2543 21.4377 13.9289C21.4036 13.8801 21.2955 13.8721 21.2215 13.8716C20.597 13.8671 19.9726 13.8761 19.3484 13.8621C19.2514 13.8601 19.1281 13.7864 19.0661 13.7057C18.8937 13.4795 18.7466 13.2313 18.5675 12.9582C18.6664 12.9503 18.7331 12.9398 18.7999 12.9398C19.7607 12.9388 20.7215 12.9428 21.6819 12.9358C21.8364 12.9348 21.9263 12.9867 22.0127 13.1202C22.5653 13.9743 23.1263 14.8228 23.7027 15.7003C23.7574 15.6301 23.8041 15.5792 23.8416 15.522C24.3696 14.7197 24.8931 13.915 25.4268 13.1172C25.4815 13.0355 25.5944 12.9468 25.6814 12.9458C26.6901 12.9338 27.6986 12.9383 28.7074 12.9393C28.7444 12.9393 28.7813 12.9498 28.8563 12.9607C28.6608 13.2602 28.4888 13.5368 28.2999 13.8004C28.2645 13.8502 28.1606 13.8656 28.0886 13.8661C27.4641 13.8711 26.8397 13.8736 26.2151 13.8656C26.071 13.8636 25.9832 13.9075 25.9048 14.0365C25.7231 14.337 25.5238 14.626 25.3049 14.9609C26.0586 14.9609 26.7705 14.9609 27.5419 14.9609C27.3287 15.2883 27.1533 15.5708 26.9606 15.8404C26.9251 15.8897 26.8199 15.9026 26.7465 15.9031C26.1542 15.9086 25.5613 15.9156 24.9694 15.9026C24.7649 15.8982 24.6366 15.955 24.5207 16.1408C24.2585 16.5629 24.2509 16.5524 24.5207 16.9505C24.7832 17.3372 25.042 17.7269 25.2923 18.1225C25.7406 18.8311 25.7065 19.7544 25.2165 20.4077C24.714 21.0779 23.8733 21.3455 23.109 21.0784C22.3451 20.8113 21.8182 20.0703 21.813 19.2272C21.81 18.8121 21.9239 18.427 22.1568 18.0812C22.4596 17.6322 22.7497 17.1743 23.0543 16.7268C23.1411 16.5993 23.1273 16.514 23.0605 16.375C22.8774 15.9938 22.617 15.8583 22.202 15.8952C21.7015 15.9395 21.1942 15.9141 20.6898 15.8992C20.5913 15.8962 20.4654 15.8274 20.4039 15.7462C20.2286 15.515 20.0787 15.2613 19.8822 14.9609ZM23.7474 17.397C23.7041 17.4309 23.6806 17.4414 23.6686 17.4598C23.3971 17.8699 23.1176 18.2745 22.8592 18.6936C22.608 19.1002 22.6902 19.6333 23.032 19.9662C23.3723 20.2971 23.8775 20.3379 24.2701 20.0653C24.6462 19.8042 24.8455 19.277 24.638 18.8645C24.3824 18.3557 24.05 17.8883 23.7474 17.397Z" fill="white"/>
</svg>
