<svg width="59" height="33" viewBox="0 0 59 33" fill="none" xmlns="http://www.w3.org/2000/svg">
<rect x="0.0393066" y="0.779114" width="58.1912" height="25.8627" rx="12.9314" fill="#353945"/>
<g filter="url(#filter0_d_12412_252)">
<circle cx="43.2071" cy="13.7111" r="9.11666" fill="#3772FF"/>
</g>
<path d="M19.8865 14.8418C19.3801 14.9677 18.8738 15.0307 18.3674 15.0307C15.2028 15.0307 12.6711 12.5115 12.6711 9.3626C12.6711 8.85877 12.7344 8.35493 12.861 7.8511C12.9243 7.66217 12.861 7.41025 12.6711 7.22131C12.4812 7.03238 12.2913 6.9694 12.0382 7.03238C9.06339 7.91408 6.97473 10.6852 6.97473 13.7711C6.97473 17.6128 10.0761 20.6988 13.9369 20.6988C17.0383 20.6988 19.8232 18.6205 20.646 15.5975C20.7093 15.4086 20.646 15.1567 20.4561 14.9677C20.3295 14.8418 20.0763 14.7788 19.8865 14.8418Z" fill="#808191"/>
<path d="M15.2029 8.10368H15.8358V8.73347C15.8358 9.11134 16.089 9.36326 16.4687 9.36326C16.8485 9.36326 17.1017 9.11134 17.1017 8.73347V8.10368H17.7346C18.1143 8.10368 18.3675 7.85176 18.3675 7.47389C18.3675 7.09601 18.1143 6.8441 17.7346 6.8441H17.1017V6.21431C17.1017 5.83643 16.8485 5.58452 16.4687 5.58452C16.089 5.58452 15.8358 5.83643 15.8358 6.21431V6.8441H15.2029C14.8231 6.8441 14.5699 7.09601 14.5699 7.47389C14.5699 7.85176 14.8231 8.10368 15.2029 8.10368Z" fill="#808191"/>
<path d="M21.5329 10.6222H20.9V9.99237C20.9 9.6145 20.6468 9.36258 20.2671 9.36258C19.8873 9.36258 19.6341 9.6145 19.6341 9.99237V10.6222H19.0012C18.6215 10.6222 18.3683 10.8741 18.3683 11.2519C18.3683 11.6298 18.6215 11.8817 19.0012 11.8817H19.6341V12.5115C19.6341 12.8894 19.8873 13.1413 20.2671 13.1413C20.6468 13.1413 20.9 12.8894 20.9 12.5115V11.8817H21.5329C21.9127 11.8817 22.1659 11.6298 22.1659 11.2519C22.1659 10.8741 21.9127 10.6222 21.5329 10.6222Z" fill="#808191"/>
<defs>
<filter id="filter0_d_12412_252" x="27.6248" y="1.36159" width="31.1646" height="31.1647" filterUnits="userSpaceOnUse" color-interpolation-filters="sRGB">
<feFlood flood-opacity="0" result="BackgroundImageFix"/>
<feColorMatrix in="SourceAlpha" type="matrix" values="0 0 0 0 0 0 0 0 0 0 0 0 0 0 0 0 0 0 127 0" result="hardAlpha"/>
<feOffset dy="3.23284"/>
<feGaussianBlur stdDeviation="3.23284"/>
<feColorMatrix type="matrix" values="0 0 0 0 0 0 0 0 0 0 0 0 0 0 0 0 0 0 0.1 0"/>
<feBlend mode="normal" in2="BackgroundImageFix" result="effect1_dropShadow_12412_252"/>
<feBlend mode="normal" in="SourceGraphic" in2="effect1_dropShadow_12412_252" result="shape"/>
</filter>
</defs>
</svg>
